<mxfile host="app.diagrams.net" agent="Mozilla/5.0 (Windows NT 10.0; Win64; x64) AppleWebKit/537.36 (KHTML, like Gecko) Chrome/131.0.0.0 Safari/537.36" version="25.0.1">
  <diagram id="C5RBs43oDa-KdzZeNtuy" name="Page-1">
    <mxGraphModel dx="1235" dy="716" grid="1" gridSize="10" guides="1" tooltips="1" connect="1" arrows="1" fold="1" page="1" pageScale="1" pageWidth="827" pageHeight="1169" math="0" shadow="0">
      <root>
        <mxCell id="WIyWlLk6GJQsqaUBKTNV-0" />
        <mxCell id="WIyWlLk6GJQsqaUBKTNV-1" parent="WIyWlLk6GJQsqaUBKTNV-0" />
        <mxCell id="gj2zYSWBRJZ9SVVLSxvl-1" style="edgeStyle=orthogonalEdgeStyle;rounded=0;orthogonalLoop=1;jettySize=auto;html=1;entryX=0.5;entryY=0;entryDx=0;entryDy=0;" edge="1" parent="WIyWlLk6GJQsqaUBKTNV-1" source="gj2zYSWBRJZ9SVVLSxvl-2" target="gj2zYSWBRJZ9SVVLSxvl-4">
          <mxGeometry relative="1" as="geometry" />
        </mxCell>
        <mxCell id="gj2zYSWBRJZ9SVVLSxvl-2" value="Mulai" style="strokeWidth=2;html=1;shape=mxgraph.flowchart.terminator;whiteSpace=wrap;" vertex="1" parent="WIyWlLk6GJQsqaUBKTNV-1">
          <mxGeometry x="213" y="210" width="100" height="60" as="geometry" />
        </mxCell>
        <mxCell id="gj2zYSWBRJZ9SVVLSxvl-15" style="edgeStyle=orthogonalEdgeStyle;rounded=0;orthogonalLoop=1;jettySize=auto;html=1;entryX=0.5;entryY=0;entryDx=0;entryDy=0;" edge="1" parent="WIyWlLk6GJQsqaUBKTNV-1" source="gj2zYSWBRJZ9SVVLSxvl-4" target="gj2zYSWBRJZ9SVVLSxvl-14">
          <mxGeometry relative="1" as="geometry" />
        </mxCell>
        <mxCell id="gj2zYSWBRJZ9SVVLSxvl-4" value="Deklarasi Variabel&lt;br&gt;dan&lt;br&gt;Type Data" style="shape=hexagon;perimeter=hexagonPerimeter2;whiteSpace=wrap;html=1;fixedSize=1;" vertex="1" parent="WIyWlLk6GJQsqaUBKTNV-1">
          <mxGeometry x="203" y="310" width="120" height="80" as="geometry" />
        </mxCell>
        <mxCell id="gj2zYSWBRJZ9SVVLSxvl-18" style="edgeStyle=orthogonalEdgeStyle;rounded=0;orthogonalLoop=1;jettySize=auto;html=1;entryX=0.5;entryY=0;entryDx=0;entryDy=0;" edge="1" parent="WIyWlLk6GJQsqaUBKTNV-1" source="gj2zYSWBRJZ9SVVLSxvl-12" target="gj2zYSWBRJZ9SVVLSxvl-13">
          <mxGeometry relative="1" as="geometry" />
        </mxCell>
        <mxCell id="gj2zYSWBRJZ9SVVLSxvl-12" value="Tampilkan&amp;nbsp;&lt;br&gt;Menu Pilihan" style="shape=parallelogram;perimeter=parallelogramPerimeter;whiteSpace=wrap;html=1;fixedSize=1;" vertex="1" parent="WIyWlLk6GJQsqaUBKTNV-1">
          <mxGeometry x="203" y="580" width="120" height="60" as="geometry" />
        </mxCell>
        <mxCell id="gj2zYSWBRJZ9SVVLSxvl-26" style="edgeStyle=orthogonalEdgeStyle;rounded=0;orthogonalLoop=1;jettySize=auto;html=1;entryX=0.5;entryY=0;entryDx=0;entryDy=0;" edge="1" parent="WIyWlLk6GJQsqaUBKTNV-1" source="gj2zYSWBRJZ9SVVLSxvl-13" target="gj2zYSWBRJZ9SVVLSxvl-20">
          <mxGeometry relative="1" as="geometry">
            <Array as="points">
              <mxPoint x="423" y="700" />
              <mxPoint x="423" y="180" />
              <mxPoint x="513" y="180" />
            </Array>
          </mxGeometry>
        </mxCell>
        <mxCell id="gj2zYSWBRJZ9SVVLSxvl-13" value="Input Pilihan" style="shape=parallelogram;perimeter=parallelogramPerimeter;whiteSpace=wrap;html=1;fixedSize=1;" vertex="1" parent="WIyWlLk6GJQsqaUBKTNV-1">
          <mxGeometry x="203" y="670" width="120" height="60" as="geometry" />
        </mxCell>
        <mxCell id="gj2zYSWBRJZ9SVVLSxvl-16" style="edgeStyle=orthogonalEdgeStyle;rounded=0;orthogonalLoop=1;jettySize=auto;html=1;entryX=0.5;entryY=0;entryDx=0;entryDy=0;" edge="1" parent="WIyWlLk6GJQsqaUBKTNV-1" source="gj2zYSWBRJZ9SVVLSxvl-14" target="gj2zYSWBRJZ9SVVLSxvl-12">
          <mxGeometry relative="1" as="geometry" />
        </mxCell>
        <mxCell id="gj2zYSWBRJZ9SVVLSxvl-48" style="edgeStyle=orthogonalEdgeStyle;rounded=0;orthogonalLoop=1;jettySize=auto;html=1;" edge="1" parent="WIyWlLk6GJQsqaUBKTNV-1" source="gj2zYSWBRJZ9SVVLSxvl-14" target="gj2zYSWBRJZ9SVVLSxvl-47">
          <mxGeometry relative="1" as="geometry" />
        </mxCell>
        <mxCell id="gj2zYSWBRJZ9SVVLSxvl-14" value="pilihan != 4" style="rhombus;whiteSpace=wrap;html=1;" vertex="1" parent="WIyWlLk6GJQsqaUBKTNV-1">
          <mxGeometry x="203" y="430" width="120" height="120" as="geometry" />
        </mxCell>
        <mxCell id="gj2zYSWBRJZ9SVVLSxvl-27" style="edgeStyle=orthogonalEdgeStyle;rounded=0;orthogonalLoop=1;jettySize=auto;html=1;entryX=0.5;entryY=0;entryDx=0;entryDy=0;" edge="1" parent="WIyWlLk6GJQsqaUBKTNV-1" source="gj2zYSWBRJZ9SVVLSxvl-20" target="gj2zYSWBRJZ9SVVLSxvl-22">
          <mxGeometry relative="1" as="geometry" />
        </mxCell>
        <mxCell id="gj2zYSWBRJZ9SVVLSxvl-37" style="edgeStyle=orthogonalEdgeStyle;rounded=0;orthogonalLoop=1;jettySize=auto;html=1;entryX=0;entryY=0.5;entryDx=0;entryDy=0;" edge="1" parent="WIyWlLk6GJQsqaUBKTNV-1" source="gj2zYSWBRJZ9SVVLSxvl-20" target="gj2zYSWBRJZ9SVVLSxvl-32">
          <mxGeometry relative="1" as="geometry" />
        </mxCell>
        <mxCell id="gj2zYSWBRJZ9SVVLSxvl-20" value="pilihan == 1&amp;nbsp;" style="rhombus;whiteSpace=wrap;html=1;" vertex="1" parent="WIyWlLk6GJQsqaUBKTNV-1">
          <mxGeometry x="473" y="200" width="80" height="80" as="geometry" />
        </mxCell>
        <mxCell id="gj2zYSWBRJZ9SVVLSxvl-29" style="edgeStyle=orthogonalEdgeStyle;rounded=0;orthogonalLoop=1;jettySize=auto;html=1;entryX=0.5;entryY=0;entryDx=0;entryDy=0;" edge="1" parent="WIyWlLk6GJQsqaUBKTNV-1" source="gj2zYSWBRJZ9SVVLSxvl-21" target="gj2zYSWBRJZ9SVVLSxvl-23">
          <mxGeometry relative="1" as="geometry" />
        </mxCell>
        <mxCell id="gj2zYSWBRJZ9SVVLSxvl-39" style="edgeStyle=orthogonalEdgeStyle;rounded=0;orthogonalLoop=1;jettySize=auto;html=1;entryX=0;entryY=0.5;entryDx=0;entryDy=0;" edge="1" parent="WIyWlLk6GJQsqaUBKTNV-1" source="gj2zYSWBRJZ9SVVLSxvl-21" target="gj2zYSWBRJZ9SVVLSxvl-34">
          <mxGeometry relative="1" as="geometry" />
        </mxCell>
        <mxCell id="gj2zYSWBRJZ9SVVLSxvl-21" value="pilihan == 3" style="rhombus;whiteSpace=wrap;html=1;" vertex="1" parent="WIyWlLk6GJQsqaUBKTNV-1">
          <mxGeometry x="473" y="420" width="80" height="80" as="geometry" />
        </mxCell>
        <mxCell id="gj2zYSWBRJZ9SVVLSxvl-28" style="edgeStyle=orthogonalEdgeStyle;rounded=0;orthogonalLoop=1;jettySize=auto;html=1;entryX=0.5;entryY=0;entryDx=0;entryDy=0;" edge="1" parent="WIyWlLk6GJQsqaUBKTNV-1" source="gj2zYSWBRJZ9SVVLSxvl-22" target="gj2zYSWBRJZ9SVVLSxvl-21">
          <mxGeometry relative="1" as="geometry" />
        </mxCell>
        <mxCell id="gj2zYSWBRJZ9SVVLSxvl-38" style="edgeStyle=orthogonalEdgeStyle;rounded=0;orthogonalLoop=1;jettySize=auto;html=1;entryX=0;entryY=0.5;entryDx=0;entryDy=0;" edge="1" parent="WIyWlLk6GJQsqaUBKTNV-1" source="gj2zYSWBRJZ9SVVLSxvl-22" target="gj2zYSWBRJZ9SVVLSxvl-33">
          <mxGeometry relative="1" as="geometry" />
        </mxCell>
        <mxCell id="gj2zYSWBRJZ9SVVLSxvl-22" value="pilihan == 2" style="rhombus;whiteSpace=wrap;html=1;" vertex="1" parent="WIyWlLk6GJQsqaUBKTNV-1">
          <mxGeometry x="473" y="310" width="80" height="80" as="geometry" />
        </mxCell>
        <mxCell id="gj2zYSWBRJZ9SVVLSxvl-31" style="edgeStyle=orthogonalEdgeStyle;rounded=0;orthogonalLoop=1;jettySize=auto;html=1;entryX=0.5;entryY=0;entryDx=0;entryDy=0;" edge="1" parent="WIyWlLk6GJQsqaUBKTNV-1" source="gj2zYSWBRJZ9SVVLSxvl-23" target="gj2zYSWBRJZ9SVVLSxvl-30">
          <mxGeometry relative="1" as="geometry" />
        </mxCell>
        <mxCell id="gj2zYSWBRJZ9SVVLSxvl-40" style="edgeStyle=orthogonalEdgeStyle;rounded=0;orthogonalLoop=1;jettySize=auto;html=1;entryX=0;entryY=0.5;entryDx=0;entryDy=0;" edge="1" parent="WIyWlLk6GJQsqaUBKTNV-1" source="gj2zYSWBRJZ9SVVLSxvl-23" target="gj2zYSWBRJZ9SVVLSxvl-35">
          <mxGeometry relative="1" as="geometry" />
        </mxCell>
        <mxCell id="gj2zYSWBRJZ9SVVLSxvl-23" value="pilihan == 4" style="rhombus;whiteSpace=wrap;html=1;" vertex="1" parent="WIyWlLk6GJQsqaUBKTNV-1">
          <mxGeometry x="473" y="530" width="80" height="80" as="geometry" />
        </mxCell>
        <mxCell id="gj2zYSWBRJZ9SVVLSxvl-41" style="edgeStyle=orthogonalEdgeStyle;rounded=0;orthogonalLoop=1;jettySize=auto;html=1;entryX=0;entryY=0.5;entryDx=0;entryDy=0;" edge="1" parent="WIyWlLk6GJQsqaUBKTNV-1" source="gj2zYSWBRJZ9SVVLSxvl-30" target="gj2zYSWBRJZ9SVVLSxvl-36">
          <mxGeometry relative="1" as="geometry" />
        </mxCell>
        <mxCell id="gj2zYSWBRJZ9SVVLSxvl-30" value="Default" style="rhombus;whiteSpace=wrap;html=1;" vertex="1" parent="WIyWlLk6GJQsqaUBKTNV-1">
          <mxGeometry x="473" y="640" width="80" height="80" as="geometry" />
        </mxCell>
        <mxCell id="gj2zYSWBRJZ9SVVLSxvl-46" style="edgeStyle=orthogonalEdgeStyle;rounded=0;orthogonalLoop=1;jettySize=auto;html=1;entryX=1;entryY=0.5;entryDx=0;entryDy=0;" edge="1" parent="WIyWlLk6GJQsqaUBKTNV-1" source="gj2zYSWBRJZ9SVVLSxvl-32" target="gj2zYSWBRJZ9SVVLSxvl-14">
          <mxGeometry relative="1" as="geometry">
            <Array as="points">
              <mxPoint x="763" y="240" />
              <mxPoint x="763" y="130" />
              <mxPoint x="363" y="130" />
              <mxPoint x="363" y="490" />
            </Array>
          </mxGeometry>
        </mxCell>
        <mxCell id="gj2zYSWBRJZ9SVVLSxvl-32" value="Tampilkan pesan&lt;br&gt;&quot;Anda memilih&lt;br&gt;menu 1&quot;" style="shape=parallelogram;perimeter=parallelogramPerimeter;whiteSpace=wrap;html=1;fixedSize=1;" vertex="1" parent="WIyWlLk6GJQsqaUBKTNV-1">
          <mxGeometry x="593" y="210" width="120" height="60" as="geometry" />
        </mxCell>
        <mxCell id="gj2zYSWBRJZ9SVVLSxvl-45" style="edgeStyle=orthogonalEdgeStyle;rounded=0;orthogonalLoop=1;jettySize=auto;html=1;entryX=1;entryY=0.5;entryDx=0;entryDy=0;" edge="1" parent="WIyWlLk6GJQsqaUBKTNV-1" source="gj2zYSWBRJZ9SVVLSxvl-33" target="gj2zYSWBRJZ9SVVLSxvl-14">
          <mxGeometry relative="1" as="geometry">
            <Array as="points">
              <mxPoint x="763" y="350" />
              <mxPoint x="763" y="130" />
              <mxPoint x="363" y="130" />
              <mxPoint x="363" y="490" />
            </Array>
          </mxGeometry>
        </mxCell>
        <mxCell id="gj2zYSWBRJZ9SVVLSxvl-33" value="Tampilkan pesan&lt;br&gt;&quot;Anda memilih&lt;br&gt;menu 2&quot;" style="shape=parallelogram;perimeter=parallelogramPerimeter;whiteSpace=wrap;html=1;fixedSize=1;" vertex="1" parent="WIyWlLk6GJQsqaUBKTNV-1">
          <mxGeometry x="593" y="320" width="120" height="60" as="geometry" />
        </mxCell>
        <mxCell id="gj2zYSWBRJZ9SVVLSxvl-44" style="edgeStyle=orthogonalEdgeStyle;rounded=0;orthogonalLoop=1;jettySize=auto;html=1;entryX=1;entryY=0.5;entryDx=0;entryDy=0;" edge="1" parent="WIyWlLk6GJQsqaUBKTNV-1" source="gj2zYSWBRJZ9SVVLSxvl-34" target="gj2zYSWBRJZ9SVVLSxvl-14">
          <mxGeometry relative="1" as="geometry">
            <Array as="points">
              <mxPoint x="763" y="460" />
              <mxPoint x="763" y="130" />
              <mxPoint x="363" y="130" />
              <mxPoint x="363" y="490" />
            </Array>
          </mxGeometry>
        </mxCell>
        <mxCell id="gj2zYSWBRJZ9SVVLSxvl-34" value="Tampilkan pesan&lt;br&gt;&quot;Anda memilih&lt;br&gt;menu 3&quot;" style="shape=parallelogram;perimeter=parallelogramPerimeter;whiteSpace=wrap;html=1;fixedSize=1;" vertex="1" parent="WIyWlLk6GJQsqaUBKTNV-1">
          <mxGeometry x="593" y="430" width="120" height="60" as="geometry" />
        </mxCell>
        <mxCell id="gj2zYSWBRJZ9SVVLSxvl-43" style="edgeStyle=orthogonalEdgeStyle;rounded=0;orthogonalLoop=1;jettySize=auto;html=1;entryX=1;entryY=0.5;entryDx=0;entryDy=0;" edge="1" parent="WIyWlLk6GJQsqaUBKTNV-1" source="gj2zYSWBRJZ9SVVLSxvl-35" target="gj2zYSWBRJZ9SVVLSxvl-14">
          <mxGeometry relative="1" as="geometry">
            <Array as="points">
              <mxPoint x="763" y="570" />
              <mxPoint x="763" y="130" />
              <mxPoint x="363" y="130" />
              <mxPoint x="363" y="490" />
            </Array>
          </mxGeometry>
        </mxCell>
        <mxCell id="gj2zYSWBRJZ9SVVLSxvl-35" value="Tampilkan pesan&lt;br&gt;&quot;Anda memilih&lt;br&gt;menu 4&quot;" style="shape=parallelogram;perimeter=parallelogramPerimeter;whiteSpace=wrap;html=1;fixedSize=1;" vertex="1" parent="WIyWlLk6GJQsqaUBKTNV-1">
          <mxGeometry x="593" y="540" width="120" height="60" as="geometry" />
        </mxCell>
        <mxCell id="gj2zYSWBRJZ9SVVLSxvl-42" style="edgeStyle=orthogonalEdgeStyle;rounded=0;orthogonalLoop=1;jettySize=auto;html=1;entryX=1;entryY=0.5;entryDx=0;entryDy=0;" edge="1" parent="WIyWlLk6GJQsqaUBKTNV-1" source="gj2zYSWBRJZ9SVVLSxvl-36" target="gj2zYSWBRJZ9SVVLSxvl-14">
          <mxGeometry relative="1" as="geometry">
            <Array as="points">
              <mxPoint x="763" y="680" />
              <mxPoint x="763" y="130" />
              <mxPoint x="363" y="130" />
              <mxPoint x="363" y="490" />
            </Array>
          </mxGeometry>
        </mxCell>
        <mxCell id="gj2zYSWBRJZ9SVVLSxvl-36" value="Tampilkan pesan&lt;br&gt;&quot;Pilihan&lt;br&gt;tidak valid&quot;" style="shape=parallelogram;perimeter=parallelogramPerimeter;whiteSpace=wrap;html=1;fixedSize=1;" vertex="1" parent="WIyWlLk6GJQsqaUBKTNV-1">
          <mxGeometry x="593" y="650" width="120" height="60" as="geometry" />
        </mxCell>
        <mxCell id="gj2zYSWBRJZ9SVVLSxvl-47" value="Selesai" style="strokeWidth=2;html=1;shape=mxgraph.flowchart.terminator;whiteSpace=wrap;" vertex="1" parent="WIyWlLk6GJQsqaUBKTNV-1">
          <mxGeometry x="63" y="460" width="100" height="60" as="geometry" />
        </mxCell>
        <mxCell id="gj2zYSWBRJZ9SVVLSxvl-49" value="Tidak" style="text;html=1;align=center;verticalAlign=middle;whiteSpace=wrap;rounded=0;" vertex="1" parent="WIyWlLk6GJQsqaUBKTNV-1">
          <mxGeometry x="513" y="280" width="60" height="30" as="geometry" />
        </mxCell>
        <mxCell id="gj2zYSWBRJZ9SVVLSxvl-50" value="Ya" style="text;html=1;align=center;verticalAlign=middle;whiteSpace=wrap;rounded=0;" vertex="1" parent="WIyWlLk6GJQsqaUBKTNV-1">
          <mxGeometry x="543" y="210" width="60" height="30" as="geometry" />
        </mxCell>
        <mxCell id="gj2zYSWBRJZ9SVVLSxvl-51" value="True" style="text;html=1;align=center;verticalAlign=middle;whiteSpace=wrap;rounded=0;" vertex="1" parent="WIyWlLk6GJQsqaUBKTNV-1">
          <mxGeometry x="263" y="550" width="60" height="30" as="geometry" />
        </mxCell>
        <mxCell id="gj2zYSWBRJZ9SVVLSxvl-52" value="False" style="text;html=1;align=center;verticalAlign=middle;whiteSpace=wrap;rounded=0;" vertex="1" parent="WIyWlLk6GJQsqaUBKTNV-1">
          <mxGeometry x="163" y="460" width="60" height="30" as="geometry" />
        </mxCell>
        <mxCell id="gj2zYSWBRJZ9SVVLSxvl-54" value="Ya" style="text;html=1;align=center;verticalAlign=middle;whiteSpace=wrap;rounded=0;" vertex="1" parent="WIyWlLk6GJQsqaUBKTNV-1">
          <mxGeometry x="543" y="320" width="60" height="30" as="geometry" />
        </mxCell>
        <mxCell id="gj2zYSWBRJZ9SVVLSxvl-55" value="Ya" style="text;html=1;align=center;verticalAlign=middle;whiteSpace=wrap;rounded=0;" vertex="1" parent="WIyWlLk6GJQsqaUBKTNV-1">
          <mxGeometry x="543" y="430" width="60" height="30" as="geometry" />
        </mxCell>
        <mxCell id="gj2zYSWBRJZ9SVVLSxvl-56" value="Ya" style="text;html=1;align=center;verticalAlign=middle;whiteSpace=wrap;rounded=0;" vertex="1" parent="WIyWlLk6GJQsqaUBKTNV-1">
          <mxGeometry x="543" y="540" width="60" height="30" as="geometry" />
        </mxCell>
        <mxCell id="gj2zYSWBRJZ9SVVLSxvl-57" value="Ya" style="text;html=1;align=center;verticalAlign=middle;whiteSpace=wrap;rounded=0;" vertex="1" parent="WIyWlLk6GJQsqaUBKTNV-1">
          <mxGeometry x="543" y="650" width="60" height="30" as="geometry" />
        </mxCell>
        <mxCell id="gj2zYSWBRJZ9SVVLSxvl-58" value="Tidak" style="text;html=1;align=center;verticalAlign=middle;whiteSpace=wrap;rounded=0;" vertex="1" parent="WIyWlLk6GJQsqaUBKTNV-1">
          <mxGeometry x="513" y="390" width="60" height="30" as="geometry" />
        </mxCell>
        <mxCell id="gj2zYSWBRJZ9SVVLSxvl-59" value="Tidak" style="text;html=1;align=center;verticalAlign=middle;whiteSpace=wrap;rounded=0;" vertex="1" parent="WIyWlLk6GJQsqaUBKTNV-1">
          <mxGeometry x="513" y="500" width="60" height="30" as="geometry" />
        </mxCell>
        <mxCell id="gj2zYSWBRJZ9SVVLSxvl-60" value="Tidak" style="text;html=1;align=center;verticalAlign=middle;whiteSpace=wrap;rounded=0;" vertex="1" parent="WIyWlLk6GJQsqaUBKTNV-1">
          <mxGeometry x="513" y="610" width="60" height="30" as="geometry" />
        </mxCell>
      </root>
    </mxGraphModel>
  </diagram>
</mxfile>
